<svg preserveAspectRatio="none" width="100%" height="100%" overflow="visible" style="display: block;" viewBox="0 0 49.5942 56.6792" fill="none" xmlns="http://www.w3.org/2000/svg">
<g id="Group 36">
<path id="Vector" d="M49.5645 18.9705L49.5942 20.3713L49.5063 20.8097C49.1077 24.7458 45.9544 27.2765 42.4986 28.6984L44.1328 29.5845C45.3925 30.2667 46.4992 31.147 47.4597 32.2325C48.5801 33.4996 49.3372 35.0046 49.5154 36.7195L49.5942 37.0747V38.3055L49.5086 38.8412C49.1888 42.5511 46.1497 46.5411 42.5225 47.2163C39.367 47.8047 36.2138 46.7322 33.9091 44.4769C33.8291 44.4852 33.7903 44.4863 33.7869 44.5168L33.764 44.7196C33.8006 45.9996 33.812 47.2104 33.7332 48.4834C33.4877 50.7996 32.5717 52.9799 30.8027 54.438L30.0809 55.0335C28.9034 56.0041 27.3947 56.487 25.8769 56.6007L25.4395 56.6792H24.2403C21.9768 56.5456 19.9336 55.772 18.3153 53.9703C17.0339 52.4125 16.2984 50.5757 16.054 48.5432C15.8896 47.1811 15.9501 45.8437 15.9352 44.4301C13.9789 45.8273 11.8912 47.051 9.55566 47.3288C4.75899 47.8997 0.487662 43.4337 0.0776605 38.8458L0 38.3934V36.9387C0.347188 32.7834 3.33712 30.3711 7.08994 28.7218C3.70144 27.1089 0.539055 24.645 0.0810867 20.7311L0 20.3713L0.0319778 18.885C0.260391 16.1773 1.49268 13.7708 3.55411 11.9762C6.23796 9.63889 9.62305 9.45017 12.7843 10.9412C13.9138 11.4733 14.872 12.1813 15.9352 12.9514L15.9592 9.7397C15.9901 5.74846 18.6408 2.02565 22.5706 1.04337L22.8699 3.99841C20.3539 4.64662 18.9788 6.86085 18.7333 9.44431C18.3564 13.4062 20.0752 17.9789 21.7609 21.6419L20.3767 22.4847C19.2438 20.7839 18.0903 19.1417 16.7164 17.6366C14.8023 15.5408 12.7272 13.6805 9.94968 13.078C8.0173 12.6596 6.21855 13.3254 4.89604 14.7589C3.71971 16.0331 2.95338 17.5299 2.89171 19.3175C2.78436 22.4636 4.66877 24.4223 7.34348 25.6648C10.3974 27.0831 13.9789 27.5743 17.3069 27.8907L17.3217 29.4849C13.0972 29.8858 6.81927 30.7801 4.09202 34.1665C1.83987 36.9645 2.90199 41.2511 5.84052 43.4654C8.66028 45.5905 12.4348 43.7936 14.9028 41.5489C17.0236 39.6195 18.7573 37.4088 20.3493 34.9765L21.7666 35.7138C20.2214 39.099 18.7801 42.8722 18.6773 46.6525C18.5883 49.9228 20.0353 52.9506 23.2662 53.5472C24.3614 53.75 25.4692 53.7359 26.5656 53.5249C28.1017 53.2295 29.3694 52.3469 30.1083 50.9157C30.5628 50.033 30.7718 49.0285 30.8655 48.0063C31.2344 43.9835 29.5235 39.4308 27.8207 35.7232L29.2175 34.9496C31.3246 38.1039 33.9273 41.5102 37.1994 43.3657C38.3129 43.9975 39.4778 44.3539 40.7398 44.4066C42.1833 44.4676 43.4396 43.8112 44.4778 42.816C45.7523 41.5946 46.5643 40.0192 46.6842 38.2305C47.149 31.3147 37.4917 30.003 32.2382 29.472L32.2691 27.8872C34.7485 27.6528 37.1194 27.3082 39.5086 26.6377L41.1189 26.0938C42.4392 25.6472 43.6326 24.9709 44.6856 24.0495C46.7322 22.2596 47.1559 19.7008 46.2171 17.1232L48.7822 15.7752C49.2641 16.8395 49.5371 17.898 49.5611 18.9717L49.5645 18.9705Z" fill="var(--fill-0, #BA0B2F)"/>
<path id="Vector_2" d="M31.9648 0.00703302C35.3739 0.478245 36.8483 2.66317 36.878 6.19023C38.3604 5.07081 39.5915 4.49879 41.3651 4.72619C43.6207 5.25132 45.3018 7.16313 45.504 9.55201C45.6228 10.9528 45.3053 12.2855 44.5584 13.4495C43.9805 14.3509 43.1593 14.951 42.2331 15.4668C38.6562 17.4583 34.3711 18.8977 30.479 20.2211C30.182 20.3219 29.8588 20.2961 29.5813 20.1496C29.2889 19.996 29.0731 19.7218 28.9874 19.3959C28.1777 16.3049 27.4182 13.2643 26.7627 10.1334L26.1802 6.83492C25.5921 3.50713 27.7837 0.365717 31.0134 0L31.9648 0.00703302Z" fill="var(--fill-0, #BA0B2F)"/>
</g>
</svg>
