<svg preserveAspectRatio="none" width="100%" height="100%" overflow="visible" style="display: block;" viewBox="0 0 24 21" fill="none" xmlns="http://www.w3.org/2000/svg">
<g id="Mode_Isolation" clip-path="url(#clip0_0_92)">
<path id="Vector" d="M12.0002 20.9998C11.8796 20.9998 11.7586 20.9579 11.6612 20.8746C10.8831 20.2078 9.89693 19.4946 8.85311 18.7392C4.90872 15.8852 0 12.3337 0 7.02621C0 4.80478 0.892859 2.79538 2.44944 1.51295C4.23025 0.0461049 6.9057 -0.413148 8.95539 0.395333C10.215 0.892003 11.3008 1.87153 11.9998 3.12501C12.6988 1.87198 13.7846 0.892448 15.0437 0.395333C17.0943 -0.413148 19.7693 0.0461049 21.5497 1.51295C23.1067 2.79538 23.9996 4.80478 23.9996 7.02621C23.9996 12.3337 19.0908 15.8856 15.1469 18.7392C14.1031 19.4946 13.1169 20.2082 12.3388 20.8746C12.2414 20.9584 12.1204 20.9998 11.9998 20.9998H12.0002ZM6.76143 1.03232C5.46703 1.03232 4.12171 1.48177 3.11228 2.31297C1.79554 3.39762 1.0407 5.11525 1.0407 7.02576C1.0407 11.804 5.7109 15.1832 9.46368 17.8986C10.382 18.5632 11.2561 19.1957 11.9998 19.8038C12.7435 19.1957 13.6176 18.5632 14.5359 17.899C18.2886 15.1836 22.9589 11.8045 22.9589 7.02621C22.9589 5.1157 22.2036 3.39762 20.8868 2.31341C19.3856 1.07686 17.1399 0.684871 15.4265 1.36105C14.2527 1.82432 13.2571 2.80607 12.6952 4.05554C12.6215 4.21902 12.5527 4.39185 12.4906 4.56914C12.4178 4.77761 12.2209 4.91703 11.9993 4.91703C11.7778 4.91703 11.5808 4.77761 11.508 4.56914C11.4455 4.39096 11.3771 4.21813 11.3034 4.05554C10.7416 2.80607 9.74597 1.82432 8.57172 1.36105C8.01027 1.13967 7.39121 1.03276 6.76054 1.03276L6.76143 1.03232Z" fill="var(--fill-0, #3F372F)"/>
</g>
<defs>
<clipPath id="clip0_0_92">
<rect width="24" height="21" fill="white"/>
</clipPath>
</defs>
</svg>
