<svg preserveAspectRatio="none" width="100%" height="100%" overflow="visible" style="display: block;" viewBox="0 0 18 22" fill="none" xmlns="http://www.w3.org/2000/svg">
<path id="Vector" d="M8.20463 0.322068C8.41559 0.115848 8.70169 0 9 0C9.29831 0 9.58441 0.115848 9.79537 0.322068L13.1704 3.6221C13.3753 3.82957 13.4887 4.10743 13.4861 4.39585C13.4836 4.68427 13.3653 4.96017 13.1567 5.16412C12.9481 5.36807 12.6659 5.48376 12.371 5.48627C12.076 5.48877 11.7918 5.3779 11.5796 5.17752L10.125 3.75521V14.2999C10.125 14.5917 10.0065 14.8715 9.79549 15.0777C9.58452 15.284 9.29837 15.3999 9 15.3999C8.70163 15.3999 8.41548 15.284 8.20451 15.0777C7.99353 14.8715 7.875 14.5917 7.875 14.2999V3.75521L6.42037 5.17752C6.2082 5.3779 5.92402 5.48877 5.62905 5.48627C5.33408 5.48376 5.05191 5.36807 4.84333 5.16412C4.63475 4.96017 4.51643 4.68427 4.51387 4.39585C4.5113 4.10743 4.6247 3.82957 4.82963 3.6221L8.20463 0.322068ZM0 9.89987C0 9.31639 0.237053 8.7568 0.65901 8.34422C1.08097 7.93163 1.65326 7.69985 2.25 7.69985H4.5C4.79837 7.69985 5.08452 7.81574 5.29549 8.02203C5.50647 8.22833 5.625 8.50812 5.625 8.79986C5.625 9.0916 5.50647 9.37139 5.29549 9.57768C5.08452 9.78398 4.79837 9.89987 4.5 9.89987H2.25V19.8H15.75V9.89987H13.5C13.2016 9.89987 12.9155 9.78398 12.7045 9.57768C12.4935 9.37139 12.375 9.0916 12.375 8.79986C12.375 8.50812 12.4935 8.22833 12.7045 8.02203C12.9155 7.81574 13.2016 7.69985 13.5 7.69985H15.75C16.3467 7.69985 16.919 7.93163 17.341 8.34422C17.7629 8.7568 18 9.31639 18 9.89987V19.8C18 20.3835 17.7629 20.943 17.341 21.3556C16.919 21.7682 16.3467 22 15.75 22H2.25C1.65326 22 1.08097 21.7682 0.65901 21.3556C0.237053 20.943 0 20.3835 0 19.8V9.89987Z" fill="var(--fill-0, #3F372F)" fill-opacity="0.8"/>
</svg>
