<svg preserveAspectRatio="none" width="100%" height="100%" overflow="visible" style="display: block;" viewBox="0 0 17.8794 21.6995" fill="none" xmlns="http://www.w3.org/2000/svg">
<g id="Group 28">
<path id="Vector" d="M12.8582 2.44104H16.0448C16.7814 2.44104 17.3794 3.02621 17.3794 3.74705V19.8935C17.3794 20.6143 16.7814 21.1995 16.0448 21.1995H1.83468C1.09801 21.1995 0.5 20.6143 0.5 19.8935V3.74705C0.5 3.02621 1.09801 2.44104 1.83468 2.44104H5.02128" stroke="var(--stroke-0, #3F372F)" stroke-miterlimit="10" stroke-linecap="round"/>
<path id="Vector_2" d="M12.9184 1.93815V3.545C12.9184 3.75264 12.746 3.92135 12.5338 3.92135H5.46615C5.25395 3.92135 5.08154 3.75264 5.08154 3.545V1.93815C5.08154 1.73051 5.25395 1.5618 5.46615 1.5618H7.79431V0.876348C7.79431 0.668708 7.96672 0.5 8.17892 0.5H9.82105C10.0332 0.5 10.2057 0.668708 10.2057 0.876348V1.5618H12.5338C12.746 1.5618 12.9184 1.73051 12.9184 1.93815Z" stroke="var(--stroke-0, #3F372F)" stroke-miterlimit="10" stroke-linecap="round"/>
<path id="Vector_3" d="M2.30847 6.63489H15.812" stroke="var(--stroke-0, #3F372F)" stroke-miterlimit="10" stroke-linecap="round"/>
<path id="Vector_4" d="M2.30847 8.6405H15.812" stroke="var(--stroke-0, #3F372F)" stroke-miterlimit="10" stroke-linecap="round"/>
<path id="Vector_5" d="M2.30847 10.6461H15.812" stroke="var(--stroke-0, #3F372F)" stroke-miterlimit="10" stroke-linecap="round"/>
<path id="Vector_6" d="M2.30847 12.6517H15.812" stroke="var(--stroke-0, #3F372F)" stroke-miterlimit="10" stroke-linecap="round"/>
<path id="Vector_7" d="M2.30847 14.6573H15.812" stroke="var(--stroke-0, #3F372F)" stroke-miterlimit="10" stroke-linecap="round"/>
<path id="Vector_8" d="M2.30847 16.663H12.3156" stroke="var(--stroke-0, #3F372F)" stroke-miterlimit="10" stroke-linecap="round"/>
</g>
</svg>
