<svg preserveAspectRatio="none" width="100%" height="100%" overflow="visible" style="display: block;" viewBox="0 0 30.5856 27.3662" fill="none" xmlns="http://www.w3.org/2000/svg">
<g id="Group 62">
<path id="Vector" d="M17.755 2.61157C16.744 2.09576 14.7603 2.16919 13.5687 2.4056C13.2933 2.46023 13.0419 2.56321 12.8106 2.69709C12.5187 2.86633 12.4488 3.20662 12.635 3.4896C12.7973 3.7372 13.0207 3.92123 13.2837 4.1545L11.2894 4.53733C10.3364 4.72045 9.47259 5.13417 8.65152 5.63252C5.60494 7.48216 4.60458 10.9513 5.3029 14.2794C4.14716 15.221 3.13439 16.219 2.52709 17.5757C1.64856 19.6036 2.29953 21.5087 3.60193 23.2093C4.29933 24.1195 5.13096 24.8709 6.038 25.5801C6.48347 25.9284 6.48485 26.5813 6.14373 26.9815C5.80446 27.3796 5.17786 27.5081 4.71629 27.1754C2.75052 25.7605 0.9245 23.6351 0.262499 21.3104C-0.590747 18.2232 0.716245 15.5882 3.02268 13.49C2.67926 9.55478 4.12417 5.86893 7.64335 3.80123C8.45982 3.31901 9.30065 2.972 10.2026 2.6747C11.0554 1.24459 12.538 0.371935 14.1953 0.0988094C16.6631 -0.313118 19.101 0.56581 20.3928 2.68141C21.3592 2.99842 22.2547 3.36647 23.1029 3.90063C24.9179 4.9994 26.2525 6.63815 26.9687 8.60376C27.5346 10.1691 27.7149 11.8195 27.5608 13.4753C29.9155 15.6432 31.2322 18.3463 30.2659 21.4908C29.5827 23.726 27.7673 25.8134 25.8612 27.1794C25.3905 27.517 24.7441 27.3702 24.4196 26.9538C24.095 26.5374 24.1244 25.8877 24.5864 25.5389C25.6535 24.7325 26.5918 23.8209 27.337 22.7163C28.4454 21.0735 28.8619 19.2749 27.9976 17.4436C27.3976 16.1667 26.395 15.1973 25.2834 14.2781C25.9978 10.8653 24.9156 7.31425 21.727 5.50983C20.9707 5.08179 20.1832 4.73568 19.3249 4.55031L17.1932 4.22211C17.5324 3.98122 17.8189 3.72153 18.0078 3.37945C18.1687 3.08797 18.0533 2.76425 17.7559 2.61246L17.755 2.61157Z" fill="var(--fill-0, #BA0B2F)"/>
<path id="Vector_2" d="M12.5871 25.523C11.0236 25.116 9.25638 24.2742 8.37555 22.9484C8.16178 22.6269 8.27533 22.2132 8.58197 22.0247C8.91297 21.8215 9.3327 21.9132 9.55198 22.2491C9.73495 22.5293 9.97217 22.755 10.2356 22.9708C11.9462 24.2585 14.3198 24.6991 16.4607 24.5684C16.6349 22.7425 17.2077 20.7612 18.392 19.3329C18.6747 19.036 18.9616 18.7687 19.3239 18.5847C19.9564 18.2637 20.6479 18.449 21.0759 19.0002C21.8326 19.974 21.9438 21.5076 21.9061 22.7581L22.9791 21.8712C23.2637 21.6356 23.716 21.7261 23.9174 21.9741C24.1716 22.2871 24.0985 22.6758 23.8057 22.952C20.9177 25.6766 16.435 26.5241 12.5871 25.5221V25.523Z" fill="var(--fill-0, #BA0B2F)"/>
<path id="Vector_3" d="M14.1722 15.1671C13.2679 16.9715 11.321 18.0027 9.53729 16.9241C8.87253 16.522 8.35856 15.9448 7.99538 15.2495C7.09984 13.5346 7.05525 11.492 7.83218 9.72383C8.17651 8.94072 8.69094 8.2785 9.40167 7.8021C10.597 7.00153 12.0276 7.1569 13.1061 8.08776C13.6068 8.52029 13.9824 9.0446 14.26 9.6513C15.0645 11.4083 15.0383 13.4397 14.1727 15.1671H14.1722ZM11.9637 11.8623C12.3761 12.1511 12.6441 12.5303 12.822 12.9763C13.1438 13.7428 13.1617 14.542 12.9935 15.3905C14.4191 13.5467 14.2398 10.1532 12.4597 8.68103C11.6608 8.02015 10.5882 7.97717 9.76623 8.60581C9.22652 9.01863 8.84633 9.55503 8.5898 10.1908C8.04273 11.548 8.04273 13.0551 8.57555 14.4176C8.74932 14.8622 8.98378 15.2468 9.30513 15.601C8.93046 14.3768 9.1617 12.7497 10.1299 11.9612C10.6659 11.5247 11.3799 11.4526 11.9637 11.8618V11.8623Z" fill="var(--fill-0, #BA0B2F)"/>
<path id="Vector_4" d="M21.6291 16.765C20.6053 17.5047 19.3195 17.5463 18.2722 16.8814C17.6406 16.4803 17.1592 15.9345 16.8057 15.2628C15.9184 13.5762 15.8578 11.5546 16.6011 9.80122C16.8931 9.11213 17.31 8.51842 17.8796 8.04426C19.0827 7.04265 20.6407 7.03683 21.842 8.04157C24.3148 10.1093 24.2082 14.9028 21.6291 16.7655V16.765ZM20.9147 11.9701C21.8645 12.8213 22.0535 14.1994 21.7767 15.4231C22.9205 13.9259 23.0207 11.6822 22.2617 10.0072C21.9932 9.44302 21.6438 8.95945 21.1441 8.58872C20.3332 7.98739 19.2841 8.01694 18.4993 8.6514C17.0498 9.8236 16.7151 12.0852 17.1721 13.8341C17.3698 14.4838 17.6167 15.0878 18.1155 15.617C17.7242 14.3373 17.9638 12.6256 19.0832 11.8564C19.656 11.4628 20.3612 11.525 20.9152 11.9706L20.9147 11.9701Z" fill="var(--fill-0, #BA0B2F)"/>
</g>
</svg>
