<svg preserveAspectRatio="none" width="100%" height="100%" overflow="visible" style="display: block;" viewBox="0 0 18 21" fill="none" xmlns="http://www.w3.org/2000/svg">
<g id="Objects" clip-path="url(#clip0_0_100)">
<path id="Vector" d="M1.8321 21C1.60013 21 1.36584 20.9568 1.14083 20.868C0.447704 20.5946 0 19.9488 0 19.2227V2.23399C0 1.00214 1.03227 0 2.30161 0H15.6989C16.9677 0 18.0005 1.00214 18.0005 2.23399V19.2227C18.0005 19.9488 17.5528 20.5946 16.8596 20.868C16.1665 21.1414 15.382 20.9815 14.86 20.4613L9.07609 14.6908C9.05057 14.6651 9.02088 14.6597 9.00046 14.6597C8.98005 14.6597 8.95036 14.6651 8.92484 14.6908L3.14088 20.4613C2.78829 20.8131 2.316 21 1.83257 21H1.8321ZM15.8571 19.5191C16.0426 19.7042 16.2533 19.6488 16.3354 19.6164C16.4175 19.5839 16.6082 19.4808 16.6082 19.2227V2.23399C16.6082 1.74711 16.2004 1.35121 15.6984 1.35121H2.30161C1.80009 1.35121 1.39182 1.74711 1.39182 2.23399V19.2227C1.39182 19.4808 1.5825 19.5839 1.66462 19.6164C1.74674 19.6488 1.95737 19.7042 2.14295 19.5191L7.9269 13.7485C8.2113 13.4648 8.5922 13.3085 9 13.3085C9.4078 13.3085 9.7887 13.4648 10.0731 13.7485L15.8571 19.5191Z" fill="var(--fill-0, #3F372F)"/>
</g>
<defs>
<clipPath id="clip0_0_100">
<rect width="18" height="21" fill="white"/>
</clipPath>
</defs>
</svg>
