<svg preserveAspectRatio="none" width="100%" height="100%" overflow="visible" style="display: block;" viewBox="0 0 216 246.857" fill="none" xmlns="http://www.w3.org/2000/svg">
<g id="Group 36">
<path id="Vector" d="M215.871 82.623L216 88.7237L215.617 90.6331C213.881 107.776 200.148 118.798 185.096 124.991L192.214 128.851C197.7 131.822 202.52 135.656 206.703 140.383C211.583 145.902 214.881 152.457 215.657 159.926L216 161.473V166.833L215.627 169.166C214.234 185.324 200.998 202.703 185.2 205.643C171.457 208.206 157.724 203.535 147.686 193.712C147.338 193.748 147.168 193.753 147.154 193.886L147.054 194.769C147.213 200.344 147.263 205.618 146.92 211.162C145.85 221.25 141.861 230.745 134.156 237.096L131.013 239.69C125.884 243.917 119.314 246.02 112.703 246.515L110.798 246.857H105.575C95.7165 246.276 86.8178 242.906 79.7695 235.059C74.1886 228.275 70.9853 220.275 69.9208 211.422C69.2046 205.49 69.4682 199.665 69.4035 193.508C60.8829 199.593 51.7903 204.923 41.6182 206.133C20.727 208.619 2.12394 189.169 0.338238 169.187L0 167.216V160.881C1.51212 142.783 14.5343 132.276 30.8792 125.093C16.121 118.068 2.34777 107.337 0.353161 90.291L0 88.7237L0.139275 82.2503C1.13409 70.4573 6.50114 59.9763 15.4794 52.1602C27.1685 41.9804 41.9117 41.1585 55.68 47.6523C60.5994 49.9701 64.7726 53.0536 69.4035 56.4077L69.508 42.4195C69.6423 25.0362 81.1872 8.82211 98.303 4.54395L99.6062 17.4142C88.6483 20.2374 82.6595 29.8811 81.59 41.133C79.9486 58.3886 87.4346 78.304 94.7764 94.2578L88.7478 97.9284C83.8135 90.5207 78.7896 83.3683 72.8058 76.8133C64.4692 67.6852 55.4313 59.5832 43.3343 56.9591C34.9181 55.1365 27.0839 58.0363 21.3239 64.28C16.2006 69.8293 12.863 76.3487 12.5944 84.1341C12.1268 97.8365 20.3341 106.367 31.9834 111.779C45.2841 117.956 60.8829 120.095 75.3774 121.474L75.4421 128.417C57.0429 130.163 29.7003 134.058 17.8222 148.807C8.01327 160.993 12.6392 179.663 25.4375 189.306C37.7185 198.562 54.1579 190.736 64.9069 180.959C74.1438 172.556 81.6945 162.928 88.6284 152.335L94.8012 155.546C88.0713 170.29 81.794 186.723 81.3463 203.188C80.9583 217.431 87.2605 230.618 101.332 233.216C106.102 234.1 110.927 234.038 115.702 233.119C122.393 231.833 127.914 227.989 131.132 221.755C133.112 217.911 134.022 213.536 134.43 209.084C136.036 191.563 128.585 171.734 121.169 155.587L127.252 152.217C136.429 165.955 147.765 180.791 162.016 188.873C166.866 191.624 171.939 193.176 177.436 193.406C183.723 193.671 189.195 190.813 193.716 186.478C199.267 181.159 202.804 174.297 203.326 166.507C205.35 136.386 163.29 130.673 140.409 128.361L140.543 121.458C151.342 120.437 161.668 118.936 172.074 116.016L179.087 113.647C184.837 111.702 190.035 108.757 194.621 104.744C203.535 96.9482 205.38 85.8035 201.292 74.5772L212.463 68.7062C214.562 73.3417 215.751 77.9517 215.856 82.6281L215.871 82.623Z" fill="var(--fill-0, #BA0B2F)"/>
<path id="Vector_2" d="M139.22 0.0306312C154.067 2.08292 160.489 11.599 160.618 26.9606C167.075 22.0851 172.437 19.5938 180.161 20.5842C189.985 22.8713 197.307 31.1979 198.188 41.6023C198.705 47.703 197.322 53.5077 194.069 58.5771C191.552 62.503 187.976 65.1169 183.942 67.3632C168.363 76.0369 149.7 82.3061 132.748 88.0699C131.455 88.509 130.047 88.3966 128.839 87.7585C127.565 87.0897 126.625 85.8951 126.252 84.4758C122.726 71.0134 119.418 57.7705 116.563 44.1345L114.026 29.7685C111.464 15.2748 121.01 1.59282 135.076 0L139.22 0.0306312Z" fill="var(--fill-0, #BA0B2F)"/>
</g>
</svg>
