<svg preserveAspectRatio="none" width="100%" height="100%" overflow="visible" style="display: block;" viewBox="0 0 21 24" fill="none" xmlns="http://www.w3.org/2000/svg">
<g id="Group 36">
<path id="Vector" d="M20.9874 8.03279L21 8.62592L20.9628 8.81155C20.794 10.4783 19.4588 11.5499 17.9954 12.1519L18.6875 12.5271C19.2209 12.816 19.6895 13.1888 20.0962 13.6484C20.5706 14.1849 20.8912 14.8222 20.9666 15.5484L21 15.6988V16.2199L20.9637 16.4467C20.8283 18.0177 19.5415 19.7072 18.0056 19.9931C16.6694 20.2422 15.3342 19.7881 14.3583 18.8331C14.3245 18.8366 14.308 18.8371 14.3066 18.85L14.2969 18.9359C14.3124 19.4779 14.3172 19.9906 14.2839 20.5296C14.1799 21.5104 13.7921 22.4336 13.043 23.051L12.7373 23.3032C12.2388 23.7141 11.5999 23.9186 10.9572 23.9668L10.772 24H10.2642C9.30577 23.9435 8.44062 23.6159 7.75537 22.853C7.21278 22.1934 6.90135 21.4156 6.79786 20.5549C6.72822 19.9782 6.75385 19.4119 6.74756 18.8133C5.91917 19.4049 5.03516 19.9231 4.04622 20.0407C2.01513 20.2824 0.206494 18.3914 0.0328843 16.4487L0 16.2571V15.6412C0.147012 13.8817 1.41306 12.8602 3.00214 12.1618C1.56732 11.4789 0.228256 10.4356 0.0343351 8.77829L0 8.62592L0.0135406 7.99656C0.110259 6.85001 0.632055 5.83103 1.50494 5.07113C2.64138 4.08143 4.07475 4.00152 5.41333 4.63286C5.89161 4.8582 6.29734 5.15799 6.74756 5.48409L6.75772 4.12412C6.77078 2.43408 7.8932 0.857705 9.55724 0.441772L9.68394 1.69304C8.61858 1.96752 8.03634 2.90511 7.93237 3.99904C7.77278 5.67667 8.50059 7.61289 9.21437 9.16395L8.62826 9.52082C8.14853 8.80063 7.6601 8.10526 7.07834 7.46796C6.26784 6.5805 5.38915 5.79281 4.21306 5.53769C3.39482 5.3605 2.63316 5.64242 2.07316 6.24944C1.57506 6.78896 1.25057 7.42279 1.22446 8.17971C1.179 9.51188 1.97693 10.3413 3.1095 10.8674C4.40263 11.468 5.91917 11.6759 7.32836 11.8099L7.33465 12.485C5.54584 12.6547 2.88753 13.0334 1.73271 14.4673C0.779067 15.6521 1.22881 17.4672 2.47309 18.4048C3.66708 19.3047 5.26535 18.5438 6.3104 17.5933C7.20843 16.7763 7.94252 15.8402 8.61665 14.8103L9.21679 15.1225C8.56249 16.5559 7.95219 18.1536 7.90867 19.7543C7.87095 21.1391 8.48366 22.4212 9.85174 22.6738C10.3155 22.7597 10.7846 22.7537 11.2488 22.6644C11.8993 22.5393 12.4361 22.1656 12.7489 21.5595C12.9414 21.1858 13.0299 20.7604 13.0696 20.3276C13.2258 18.6242 12.5013 16.6964 11.7803 15.1265L12.3717 14.7989C13.264 16.1345 14.3661 17.5769 15.7516 18.3626C16.2231 18.6301 16.7163 18.781 17.2507 18.8034C17.862 18.8292 18.3939 18.5512 18.8335 18.1298C19.3732 17.6126 19.717 16.9456 19.7678 16.1881C19.9646 13.2597 15.8754 12.7043 13.6508 12.4795L13.6639 11.8084C14.7138 11.7092 15.7177 11.5633 16.7294 11.2793L17.4113 11.049C17.9703 10.8599 18.4756 10.5736 18.9215 10.1834C19.7881 9.42552 19.9675 8.34201 19.57 7.25056L20.6562 6.67977C20.8602 7.13044 20.9758 7.57864 20.986 8.03329L20.9874 8.03279Z" fill="var(--fill-0, white)"/>
<path id="Vector_2" d="M13.5352 0.00297804C14.9788 0.202506 15.6031 1.12768 15.6157 2.62117C16.2434 2.14716 16.7647 1.90495 17.5157 2.00124C18.4708 2.2236 19.1826 3.03313 19.2682 4.04467C19.3185 4.6378 19.1841 5.20213 18.8678 5.695C18.6231 6.07668 18.2754 6.33081 17.8832 6.5492C16.3686 7.39248 14.5542 8.00198 12.9061 8.56235C12.7804 8.60504 12.6435 8.59412 12.526 8.53207C12.4022 8.46705 12.3108 8.35091 12.2745 8.21293C11.9317 6.90408 11.6101 5.61658 11.3325 4.29085L11.0859 2.89416C10.8368 1.48505 11.7648 0.154858 13.1324 0L13.5352 0.00297804Z" fill="var(--fill-0, white)"/>
</g>
</svg>
