<svg preserveAspectRatio="none" width="100%" height="100%" overflow="visible" style="display: block;" viewBox="0 0 33 37.0201" fill="none" xmlns="http://www.w3.org/2000/svg">
<path id="Vector" d="M32.9802 11.9287L33 12.8608L32.9415 13.1525C32.6763 15.7716 30.5781 17.4556 28.2785 18.4016L29.366 18.9913C30.2042 19.4452 30.9406 20.031 31.5797 20.7532C32.3252 21.5964 32.829 22.5978 32.9476 23.7389L33 23.9753V24.7942L32.943 25.1507C32.7302 27.6192 30.708 30.2742 28.2945 30.7235C26.1948 31.115 24.0966 30.4014 22.5631 28.9007C22.5099 28.9062 22.4841 28.907 22.4818 28.9272L22.4666 29.0622C22.4909 29.9139 22.4985 30.7196 22.4461 31.5666C22.2827 33.1078 21.6732 34.5586 20.4961 35.5288L20.0158 35.9251C19.2323 36.5709 18.2285 36.8922 17.2185 36.9679L16.9275 37.0201H16.1295C14.6234 36.9312 13.2638 36.4164 12.187 35.2176C11.3344 34.1811 10.845 32.9589 10.6823 31.6064C10.5729 30.7001 10.6132 29.8102 10.6033 28.8695C9.30155 29.7992 7.9124 30.6135 6.35834 30.7984C3.16663 31.1782 0.32449 28.2065 0.0516753 25.1538L0 24.8527V23.8848C0.231019 21.1198 2.22052 19.5147 4.71765 18.4172C2.46294 17.344 0.358687 15.7045 0.0539551 13.1002L0 12.8608L0.0212781 11.8718C0.173264 10.0701 0.99323 8.46883 2.36491 7.27471C4.15074 5.71946 6.40318 5.59389 8.50667 6.586C9.25824 6.9401 9.89582 7.4112 10.6033 7.92363L10.6193 5.78654C10.6398 3.13077 12.4036 0.653608 15.0185 0L15.2176 1.96628C13.5435 2.3976 12.6285 3.87095 12.4651 5.58999C12.2144 8.22626 13.3581 11.2689 14.4797 13.7063L13.5587 14.2671C12.8048 13.1353 12.0373 12.0426 11.1231 11.0411C9.84946 9.64657 8.46867 8.40877 6.62052 8.00787C5.33472 7.72942 4.13782 8.17244 3.25782 9.12634C2.47509 9.97416 1.96518 10.9702 1.92415 12.1596C1.85271 14.253 3.1066 15.5563 4.88636 16.3831C6.91841 17.3269 9.30155 17.6537 11.516 17.8643L11.5259 18.925C8.71489 19.1917 4.53755 19.7869 2.72283 22.0402C1.22425 23.9019 1.93098 26.7543 3.88629 28.2276C5.76256 29.6417 8.27413 28.446 9.91634 26.9524C11.3275 25.6686 12.4811 24.1975 13.5404 22.5791L14.4835 23.0697C13.4553 25.3222 12.4963 27.8329 12.4279 30.3483C12.3686 32.5244 13.3315 34.5391 15.4813 34.9361C16.2101 35.071 16.9472 35.0616 17.6768 34.9212C18.6989 34.7247 19.5424 34.1374 20.0341 33.185C20.3365 32.5977 20.4756 31.9293 20.5379 31.2492C20.7834 28.5724 19.645 25.543 18.5119 23.076L19.4413 22.5612C20.8434 24.6601 22.5753 26.9266 24.7525 28.1613C25.4934 28.5817 26.2685 28.8188 27.1083 28.8539C28.0688 28.8945 28.9047 28.4577 29.5955 27.7955C30.4436 26.9828 30.9839 25.9345 31.0637 24.7443C31.373 20.1425 24.947 19.2697 21.4513 18.9164L21.4718 17.8619C23.1217 17.7059 24.6993 17.4766 26.2891 17.0305L27.3606 16.6686C28.239 16.3714 29.0332 15.9214 29.7338 15.3083C31.0956 14.1173 31.3775 12.4147 30.7529 10.6995L32.4597 9.80256C32.7804 10.5108 32.962 11.2151 32.978 11.9295L32.9802 11.9287Z" fill="var(--fill-0, #6E6363)"/>
</svg>
