<svg preserveAspectRatio="none" width="100%" height="100%" overflow="visible" style="display: block;" viewBox="0 0 12.9377 13.4954" fill="none" xmlns="http://www.w3.org/2000/svg">
<path id="Vector" d="M3.9126 0.00467977C6.181 0.318225 7.16207 1.77207 7.18182 4.11898C8.16821 3.37412 8.98742 2.99349 10.1676 3.14481C11.6685 3.49423 12.7871 4.76635 12.9216 6.35591C13.0006 7.28797 12.7894 8.17478 12.2924 8.94928C11.9078 9.54908 11.3614 9.94842 10.7451 10.2916C8.36504 11.6168 5.51378 12.5745 2.92393 13.4551C2.72635 13.5222 2.51129 13.505 2.32662 13.4075C2.13208 13.3054 1.98846 13.1229 1.93146 12.906C1.39267 10.8493 0.887315 8.82605 0.451115 6.74277L0.0635507 4.54796C-0.327814 2.33365 1.13049 0.243348 3.27958 0L3.9126 0.00467977Z" fill="var(--fill-0, #6E6363)"/>
</svg>
