<svg preserveAspectRatio="none" width="100%" height="100%" overflow="visible" style="display: block;" viewBox="0 0 14 16" fill="none" xmlns="http://www.w3.org/2000/svg">
<path id="Vector" d="M1.42493 16C1.24452 16 1.0623 15.9671 0.887291 15.8995C0.348205 15.6912 0 15.1991 0 14.6459V1.70209C0 0.763539 0.802856 0 1.7901 0H12.2099C13.1968 0 14 0.763539 14 1.70209V14.6459C14 15.1991 13.6518 15.6912 13.1127 15.8995C12.5736 16.1078 11.9635 15.9859 11.5575 15.5896L7.059 11.193C7.03915 11.1734 7.01606 11.1693 7.00018 11.1693C6.9843 11.1693 6.96121 11.1734 6.94136 11.193L2.44285 15.5896C2.16861 15.8576 1.80128 16 1.42529 16H1.42493ZM12.3329 14.8717C12.4773 15.0127 12.6411 14.9705 12.705 14.9458C12.7688 14.9211 12.9171 14.8425 12.9171 14.6459V1.70209C12.9171 1.33113 12.6 1.02949 12.2095 1.02949H1.7901C1.40004 1.02949 1.0825 1.33113 1.0825 1.70209V14.6459C1.0825 14.8425 1.2308 14.9211 1.29467 14.9458C1.35854 14.9705 1.52236 15.0127 1.66669 14.8717L6.16521 10.4751C6.3864 10.2589 6.68265 10.1398 6.99982 10.1398C7.31699 10.1398 7.61324 10.2589 7.83443 10.4751L12.3329 14.8717Z" fill="var(--fill-0, #3F372F)"/>
</svg>
