<svg preserveAspectRatio="none" width="100%" height="100%" overflow="visible" style="display: block;" viewBox="0 0 14.0472 17" fill="none" xmlns="http://www.w3.org/2000/svg">
<g id="Group 28">
<path id="Vector" d="M10.0524 2.00036H12.5156C13.085 2.00036 13.5472 2.45268 13.5472 3.00986V15.4905C13.5472 16.0477 13.085 16.5 12.5156 16.5H1.53166C0.962245 16.5 0.5 16.0477 0.5 15.4905V3.00986C0.5 2.45268 0.962245 2.00036 1.53166 2.00036H3.9948" stroke="var(--stroke-0, #3F372F)" stroke-miterlimit="10" stroke-linecap="round"/>
<path id="Vector_2" d="M10.099 1.61164V2.85368C10.099 3.01418 9.96576 3.14459 9.80174 3.14459H4.33867C4.17465 3.14459 4.04138 3.01418 4.04138 2.85368V1.61164C4.04138 1.45114 4.17465 1.32073 4.33867 1.32073H6.13826V0.790905C6.13826 0.630406 6.27153 0.5 6.43555 0.5H7.70486C7.86888 0.5 8.00215 0.630406 8.00215 0.790905V1.32073H9.80174C9.96576 1.32073 10.099 1.45114 10.099 1.61164Z" stroke="var(--stroke-0, #3F372F)" stroke-miterlimit="10" stroke-linecap="round"/>
<path id="Vector_3" d="M1.89798 5.24206H12.3358" stroke="var(--stroke-0, #3F372F)" stroke-miterlimit="10" stroke-linecap="round"/>
<path id="Vector_4" d="M1.89798 6.79234H12.3358" stroke="var(--stroke-0, #3F372F)" stroke-miterlimit="10" stroke-linecap="round"/>
<path id="Vector_5" d="M1.89798 8.34261H12.3358" stroke="var(--stroke-0, #3F372F)" stroke-miterlimit="10" stroke-linecap="round"/>
<path id="Vector_6" d="M1.89798 9.89289H12.3358" stroke="var(--stroke-0, #3F372F)" stroke-miterlimit="10" stroke-linecap="round"/>
<path id="Vector_7" d="M1.89798 11.4432H12.3358" stroke="var(--stroke-0, #3F372F)" stroke-miterlimit="10" stroke-linecap="round"/>
<path id="Vector_8" d="M1.89798 12.9934H9.63313" stroke="var(--stroke-0, #3F372F)" stroke-miterlimit="10" stroke-linecap="round"/>
</g>
</svg>
