<svg preserveAspectRatio="none" width="100%" height="100%" overflow="visible" style="display: block;" viewBox="0 0 18.5 17.5" fill="none" xmlns="http://www.w3.org/2000/svg">
<path id="Vector" d="M9.25 16.75C9.25 16.75 0.75 11.1454 0.75 5.5407C0.752751 4.50983 1.07546 3.50722 1.67045 2.68101C2.26544 1.8548 3.10115 1.24882 4.0541 0.952602C5.00704 0.656383 6.02667 0.685642 6.96233 1.03605C7.89799 1.38647 8.70005 2.03945 9.25 2.89851C9.79995 2.03945 10.602 1.38647 11.5377 1.03605C12.4733 0.685642 13.493 0.656383 14.4459 0.952602C15.3988 1.24882 16.2346 1.8548 16.8295 2.68101C17.4245 3.50722 17.7472 4.50983 17.75 5.5407C17.75 11.1454 9.25 16.75 9.25 16.75Z" stroke="var(--stroke-0, #6E6363)" stroke-width="1.5" stroke-linejoin="round"/>
</svg>
