<svg preserveAspectRatio="none" width="100%" height="100%" overflow="visible" style="display: block;" viewBox="0 0 15 15" fill="none" xmlns="http://www.w3.org/2000/svg">
<g id="Mode_Isolation" clip-path="url(#clip0_0_773)">
<path id="Vector" d="M7.64405 5.99372C7.64405 6.03766 7.63764 6.07531 7.63764 6.11297C7.63764 7.02929 7.63764 9.00628 7.63764 9.00628H11.735C11.735 9.30126 11.3764 10.5 10.2305 11.2657C9.55826 11.7113 8.80282 11.9184 8.00896 11.9686C7.44558 12.0063 6.8886 11.9498 6.35083 11.7803C4.64149 11.2406 3.37388 9.72803 3.19462 7.88285C3.14981 7.42469 3.18182 6.9728 3.28425 6.52092C3.79001 4.33682 5.90269 2.71757 8.31626 3.06904C9.3854 3.22594 10 3.659 10.5634 4.12971C11.306 3.40167 12.0359 2.68619 12.7913 1.94561C12.6056 1.81381 12.1831 1.39331 11.4341 0.972803C10.3073 0.332636 9.09731 0.0125523 7.8041 0C7.56082 0 7.31754 0.0125523 7.07426 0.0188285C6.64533 0.0376569 6.22919 0.106695 5.81306 0.213389C4.16133 0.627615 2.78489 1.48117 1.70935 2.78033C0.672215 4.02929 0.115237 5.46653 0.0128041 7.06695C-0.0320102 7.74477 0.0192062 8.42259 0.172855 9.08787C0.601793 10.9456 1.60051 12.4456 3.16261 13.569C4.379 14.4414 5.74904 14.9059 7.24712 14.9874C8.09219 15.0314 8.93086 14.9561 9.75672 14.7427C11.2932 14.3473 12.5608 13.5628 13.5211 12.3201C14.904 10.5126 15.2433 8.19665 14.8335 6H7.63764L7.64405 5.99372Z" fill="var(--fill-0, #3F372F)"/>
</g>
<defs>
<clipPath id="clip0_0_773">
<rect width="15" height="15" fill="white"/>
</clipPath>
</defs>
</svg>
