<svg preserveAspectRatio="none" width="100%" height="100%" overflow="visible" style="display: block;" viewBox="0 0 24 17" fill="none" xmlns="http://www.w3.org/2000/svg">
<g id="Objects" clip-path="url(#clip0_0_792)">
<path id="Vector" d="M24 2.03477V14.9647C24 15.265 23.9358 15.5495 23.8217 15.8065L15.6842 8.49975L23.8217 1.19354C23.9358 1.45004 24 1.73503 24 2.03477Z" fill="var(--fill-0, #3F372F)"/>
<path id="Vector_2" d="M22.8493 16.8108C22.5957 16.9317 22.313 17 22.0149 17H1.98514C1.68704 17 1.40427 16.9317 1.15073 16.8108L9.36113 9.43827L10.4706 10.4348C10.9068 10.8264 11.4532 11.022 12 11.022C12.5468 11.022 13.0932 10.8259 13.5294 10.4348L14.6389 9.43827L22.8493 16.8108Z" fill="var(--fill-0, #3F372F)"/>
<path id="Vector_3" d="M8.31584 8.49975L0.178289 15.8065C0.0642224 15.55 0 15.265 0 14.9647V2.03477C0 1.73503 0.0642224 1.45004 0.178289 1.19354L8.31584 8.49975Z" fill="var(--fill-0, #3F372F)"/>
<path id="Vector_4" d="M22.8493 0.189178L12.6216 9.37243C12.2674 9.69084 11.7326 9.69084 11.3784 9.37243L1.15073 0.189178C1.40427 0.0678093 1.68704 0 1.98514 0H22.0149C22.313 0 22.5957 0.0678093 22.8493 0.189178Z" fill="var(--fill-0, #3F372F)"/>
</g>
<defs>
<clipPath id="clip0_0_792">
<rect width="24" height="17" fill="white"/>
</clipPath>
</defs>
</svg>
