<svg preserveAspectRatio="none" width="100%" height="100%" overflow="visible" style="display: block;" viewBox="0 0 18 21" fill="none" xmlns="http://www.w3.org/2000/svg">
<g id="Calque_1" clip-path="url(#clip0_0_765)">
<path id="Vector" d="M18 15.3793V15.5174C17.6119 16.5141 17.1345 17.4739 16.4836 18.3797C15.6425 19.55 14.5495 20.961 13.0323 20.9754C11.9285 20.9856 10.9348 20.2549 10.0772 20.1831C9.65309 20.1475 9.20954 20.1455 8.79262 20.1838C7.58797 20.2945 6.39771 21.3233 5.12465 20.8981C4.52268 20.6972 3.974 20.3239 3.56213 19.8631C2.70814 18.9068 1.94992 17.9394 1.38107 16.806C0.694136 15.4367 0.234739 14.0264 0.0691255 12.5129L0 12.167L0.0144012 10.6015C0.167053 9.36349 0.524202 8.18015 1.34939 7.15814C2.42803 5.82236 4.10073 5.00817 5.89655 5.14694C7.52316 5.27341 8.52908 6.44513 10.0441 5.83876C10.7965 5.53797 11.5728 5.25769 12.38 5.12097C13.4932 4.93229 14.97 5.23103 15.9284 5.79911C16.5167 6.14776 17.0092 6.65227 17.429 7.1431C16.0177 8.06804 15.1111 9.31358 15.0398 10.9317C14.9491 12.9853 16.1156 14.5761 18 15.3793Z" fill="var(--fill-0, #3F372F)"/>
<path id="Vector_2" d="M13.3931 0C13.6451 2.39061 11.6707 4.82975 8.97912 4.86393C8.70766 3.6341 9.53788 2.05563 10.502 1.22709C11.2408 0.592011 12.1078 0.207819 13.0366 0.0102542L13.3931 -0.000683616V0Z" fill="var(--fill-0, #3F372F)"/>
</g>
<defs>
<clipPath id="clip0_0_765">
<rect width="18" height="21" fill="white"/>
</clipPath>
</defs>
</svg>
