<svg width="63" height="74" viewBox="0 0 63 74" fill="none" xmlns="http://www.w3.org/2000/svg">
<g filter="url(#filter0_d_242_3456)">
<path d="M31.3643 0.5C46.2003 0.5 58.2312 12.5551 58.2314 27.4229C58.2314 38.3288 51.7619 47.72 42.458 51.9531C40.1069 53.0229 38.1575 54.7957 36.7939 56.9717L36.5293 57.4121L32.1211 65.0615C31.7837 65.6468 30.9443 65.6449 30.6104 65.0625V65.0615L26.2051 57.415C24.8347 55.0351 22.7811 53.0942 20.2734 51.9531C10.9697 47.72 4.5 38.3261 4.5 27.4229C4.50022 12.5551 16.5284 0.500153 31.3643 0.5Z" fill="white" stroke="#BBBBBB"/>
<path d="M31.3658 49.9024C43.8124 49.9024 53.9024 39.8124 53.9024 27.3658C53.9024 14.9192 43.8124 4.82922 31.3658 4.82922C18.9192 4.82922 8.82922 14.9192 8.82922 27.3658C8.82922 39.8124 18.9192 49.9024 31.3658 49.9024Z" fill="#3F372F"/>
<g clip-path="url(#clip0_242_3456)">
<path d="M33.0236 13.88C32.0127 13.3642 30.029 13.4376 28.8374 13.674C28.562 13.7287 28.3106 13.8316 28.0793 13.9655C27.7874 14.1348 27.7175 14.4751 27.9037 14.758C28.066 15.0056 28.2894 15.1897 28.5524 15.4229L26.5581 15.8058C25.6051 15.9889 24.7413 16.4026 23.9202 16.9009C20.8736 18.7506 19.8733 22.2197 20.5716 25.5478C19.4158 26.4895 18.4031 27.4875 17.7958 28.8442C16.9172 30.872 17.5682 32.7772 18.8706 34.4777C19.568 35.388 20.3996 36.1393 21.3067 36.8485C21.7521 37.1969 21.7535 37.8497 21.4124 38.25C21.0731 38.648 20.4465 38.7765 19.985 38.4438C18.0192 37.029 16.1932 34.9035 15.5312 32.5788C14.6779 29.4916 15.9849 26.8566 18.2914 24.7585C17.9479 20.8232 19.3928 17.1374 22.912 15.0697C23.7285 14.5874 24.5693 14.2404 25.4713 13.9431C26.3241 12.513 27.8067 11.6404 29.464 11.3672C31.9318 10.9553 34.3697 11.8342 35.6615 13.9498C36.6279 14.2669 37.5234 14.6349 38.3716 15.1691C40.1866 16.2678 41.5212 17.9066 42.2374 19.8722C42.8033 21.4375 42.9835 23.0879 42.8295 24.7437C45.1842 26.9117 46.5009 29.6147 45.5345 32.7593C44.8514 34.9944 43.0359 37.0818 41.1299 38.4479C40.6592 38.7855 40.0128 38.6386 39.6882 38.2222C39.3637 37.8058 39.3931 37.1561 39.8551 36.8073C40.9221 36.0009 41.8604 35.0893 42.6056 33.9847C43.714 32.342 44.1305 30.5434 43.2663 28.7121C42.6663 27.4351 41.6637 26.4657 40.5521 25.5465C41.2665 22.1338 40.1843 18.5827 36.9956 16.7783C36.2394 16.3502 35.4519 16.0041 34.5936 15.8187L32.4619 15.4905C32.8011 15.2497 33.0875 14.99 33.2765 14.6479C33.4374 14.3564 33.322 14.0327 33.0246 13.8809L33.0236 13.88Z" fill="white"/>
<path d="M27.856 36.7913C26.2925 36.3843 24.5253 35.5425 23.6445 34.2167C23.4307 33.8953 23.5443 33.4815 23.8509 33.293C24.1819 33.0898 24.6016 33.1816 24.8209 33.5174C25.0039 33.7977 25.2411 34.0233 25.5045 34.2391C27.2151 35.5269 29.5887 35.9674 31.7296 35.8367C31.9039 34.0108 32.4767 32.0295 33.6609 30.6012C33.9436 30.3043 34.2305 30.037 34.5928 29.853C35.2254 29.532 35.9168 29.7173 36.3448 30.2685C37.1015 31.2424 37.2127 32.7759 37.175 34.0264L38.248 33.1395C38.5326 32.9039 38.985 32.9944 39.1863 33.2424C39.4406 33.5554 39.3675 33.9441 39.0746 34.2203C36.1866 36.9449 31.7039 37.7924 27.856 36.7904V36.7913Z" fill="white"/>
<path d="M29.4411 26.4353C28.5369 28.2397 26.5899 29.2709 24.8062 28.1922C24.1415 27.7902 23.6275 27.213 23.2643 26.5177C22.3688 24.8028 22.3242 22.7602 23.1011 20.992C23.4454 20.2089 23.9599 19.5467 24.6706 19.0703C25.8659 18.2697 27.2965 18.4251 28.375 19.356C28.8757 19.7885 29.2513 20.3128 29.5289 20.9195C30.3335 22.6764 30.3073 24.7079 29.4416 26.4353H29.4411ZM27.2326 23.1305C27.645 23.4193 27.913 23.7985 28.0909 24.2445C28.4127 25.011 28.4307 25.8102 28.2624 26.6587C29.688 24.8149 29.5087 21.4214 27.7287 19.9492C26.9297 19.2883 25.8571 19.2454 25.0352 19.874C24.4954 20.2868 24.1152 20.8232 23.8587 21.459C23.3117 22.8161 23.3117 24.3233 23.8445 25.6858C24.0182 26.1304 24.2527 26.515 24.5741 26.8691C24.1994 25.645 24.4306 24.0179 25.3988 23.2294C25.9348 22.7929 26.6488 22.7208 27.2326 23.13V23.1305Z" fill="white"/>
<path d="M36.8978 28.0333C35.874 28.773 34.5882 28.8147 33.5409 28.1498C32.9092 27.7486 32.4279 27.2028 32.0744 26.5311C31.1871 24.8445 31.1264 22.8229 31.8698 21.0695C32.1617 20.3804 32.5787 19.7867 33.1483 19.3126C34.3514 18.311 35.9094 18.3051 37.1107 19.3099C39.5835 21.3776 39.4768 26.1712 36.8978 28.0338V28.0333ZM36.1834 23.2384C37.1332 24.0896 37.3221 25.4677 37.0454 26.6914C38.1892 25.1942 38.2894 22.9505 37.5304 21.2755C37.2619 20.7113 36.9125 20.2278 36.4128 19.857C35.6018 19.2557 34.5528 19.2853 33.768 19.9197C32.3185 21.0919 31.9838 23.3535 32.4408 25.1024C32.6385 25.7521 32.8853 26.3561 33.3841 26.8853C32.9929 25.6057 33.2324 23.8939 34.3519 23.1247C34.9247 22.7311 35.6299 22.7934 36.1839 23.2389L36.1834 23.2384Z" fill="white"/>
</g>
</g>
<defs>
<filter id="filter0_d_242_3456" x="0" y="0" width="62.7317" height="74" filterUnits="userSpaceOnUse" color-interpolation-filters="sRGB">
<feFlood flood-opacity="0" result="BackgroundImageFix"/>
<feColorMatrix in="SourceAlpha" type="matrix" values="0 0 0 0 0 0 0 0 0 0 0 0 0 0 0 0 0 0 127 0" result="hardAlpha"/>
<feOffset dy="4"/>
<feGaussianBlur stdDeviation="2"/>
<feComposite in2="hardAlpha" operator="out"/>
<feColorMatrix type="matrix" values="0 0 0 0 0 0 0 0 0 0 0 0 0 0 0 0 0 0 0.25 0"/>
<feBlend mode="normal" in2="BackgroundImageFix" result="effect1_dropShadow_242_3456"/>
<feBlend mode="normal" in="SourceGraphic" in2="effect1_dropShadow_242_3456" result="shape"/>
</filter>
<clipPath id="clip0_242_3456">
<rect width="30.5854" height="27.3659" fill="white" transform="translate(15.2683 11.2683)"/>
</clipPath>
</defs>
</svg>
