<svg width="63" height="74" viewBox="0 0 63 74" fill="none" xmlns="http://www.w3.org/2000/svg">
<g filter="url(#filter0_d_242_3520)">
<path d="M31.3643 0.5C46.2003 0.5 58.2312 12.5551 58.2314 27.4229C58.2314 38.3288 51.7619 47.72 42.458 51.9531C40.1069 53.0229 38.1575 54.7957 36.7939 56.9717L36.5293 57.4121L32.1211 65.0615C31.7837 65.6468 30.9443 65.6449 30.6104 65.0625V65.0615L26.2051 57.415C24.8347 55.0351 22.7811 53.0942 20.2734 51.9531C10.9697 47.72 4.5 38.3261 4.5 27.4229C4.50022 12.5551 16.5284 0.500153 31.3643 0.5Z" fill="white" stroke="#BBBBBB"/>
<path d="M31.3658 49.9025C43.8124 49.9025 53.9024 39.8125 53.9024 27.3659C53.9024 14.9193 43.8124 4.82935 31.3658 4.82935C18.9192 4.82935 8.82922 14.9193 8.82922 27.3659C8.82922 39.8125 18.9192 49.9025 31.3658 49.9025Z" fill="#3F372F"/>
<g clip-path="url(#clip0_242_3520)">
<path d="M31.7683 9.65845L31.9377 9.68819C32.6731 9.74059 33.373 9.91536 34.0364 10.2487C35.353 10.9106 36.3598 12.0629 36.8468 13.4624C37.0862 14.151 37.1942 14.845 37.1969 15.5742L37.2033 17.4118L37.9464 16.8317C39.035 15.9822 40.3483 15.5607 41.7277 15.5397C42.9954 15.5204 44.1789 15.9389 45.134 16.7766C46.3765 17.8664 47.3061 19.4363 47.4309 21.116L47.4631 21.3212V21.9973L47.4299 22.2028C47.3565 23.0642 47.0409 23.8569 46.5522 24.5607C45.6665 25.8368 44.2604 26.7147 42.8592 27.3749L44.1269 27.9966C45.9043 28.9796 47.2786 30.4646 47.4326 32.575L47.4631 32.7467V33.4904L47.4322 33.6618C47.3092 35.4216 46.3755 37.0054 45.0324 38.1033C43.8552 39.0657 42.3451 39.4403 40.8581 39.1367C39.5381 38.8673 38.3136 38.1544 37.1996 37.364L37.1972 38.8656C37.1949 40.5166 36.7314 42.1338 35.6351 43.3697C34.6189 44.515 33.2862 44.9903 31.7904 45.0727L30.9748 45.0717C29.6065 45.0116 28.3214 44.4987 27.3271 43.5441C26.5805 42.8275 26.0456 41.9553 25.7733 40.9496C25.447 39.7827 25.5164 38.5915 25.5962 37.3637C24.9399 37.8975 24.2635 38.3437 23.5009 38.6804C21.6044 39.5174 19.4929 39.466 17.8174 38.1851C16.4008 37.1017 15.4222 35.473 15.2978 33.6615L15.2683 33.4904V32.7467L15.2995 32.5747C15.5265 30.0096 17.6903 28.3735 19.8742 27.3732C18.6629 26.8246 17.5609 26.2445 16.6567 25.2638C15.874 24.4153 15.3854 23.3613 15.2988 22.2032L15.2683 22.0308L15.2821 21.3155C15.2951 20.6533 15.486 20.0387 15.7241 19.4167C16.2422 18.0628 17.1786 16.9784 18.4194 16.2486C20.937 14.7673 23.3801 15.8439 25.5999 17.4114L25.5446 16.6214C25.5033 16.0322 25.5339 15.4555 25.6026 14.869C25.8089 13.1065 26.6171 11.4704 28.1179 10.5096C28.9744 9.96099 29.9439 9.72876 30.9322 9.67129L31.7683 9.65845ZM32.9293 42.9914C34.3952 42.5567 35.0854 41.3201 35.2725 39.8639C35.4905 38.1659 35.1283 36.4855 34.5894 34.8713C34.2332 33.8379 33.8171 32.8589 33.3345 31.8739L34.249 31.3418C34.9348 32.3715 35.6448 33.3295 36.455 34.2409C37.8083 35.7414 39.58 37.2748 41.6619 37.361C42.4752 37.3948 43.2308 37.1335 43.8606 36.6176C44.3744 36.1968 44.7849 35.6897 45.1021 35.1008C45.4569 34.4413 45.6199 33.726 45.5975 32.9773C45.5072 29.9697 41.939 28.8339 39.4324 28.3373C38.3526 28.1324 37.3012 27.9986 36.1844 27.9049L36.1807 26.8793C39.1054 26.6136 44.8496 25.8682 45.5254 22.4151C45.7474 21.281 45.4717 20.135 44.804 19.2041C43.9763 18.05 42.8491 17.2755 41.392 17.4385C39.1524 17.6886 37.2777 19.5597 35.8692 21.2296C35.2933 21.9341 34.7708 22.6403 34.248 23.4036L33.3361 22.9073C33.8134 21.9159 34.2316 20.9365 34.5834 19.8994C35.23 17.9986 35.7089 15.4951 34.9573 13.6125C34.5901 12.6927 33.8694 12.0231 32.9149 11.7472C32.043 11.495 31.1217 11.4646 30.23 11.6613C29.5187 11.8182 28.8775 12.1687 28.4059 12.7252C26.885 14.5188 27.3656 17.2854 27.9975 19.415C28.3704 20.6239 28.8446 21.7641 29.3979 22.908L28.4854 23.4043C28.0018 22.6994 27.5246 22.0504 27.0001 21.3963C25.9386 20.1094 24.7018 18.8177 23.2269 18.0368C21.7479 17.2536 20.0389 17.0954 18.7393 18.2663C18.234 18.7217 17.8288 19.2632 17.5337 19.8822C17.2386 20.5011 17.1155 21.1302 17.1343 21.8016C17.2476 25.8131 23.3979 26.6069 26.5168 26.8773L26.5131 27.9056C25.2129 28.0185 23.9764 28.1848 22.7228 28.4624C20.2448 29.0205 17.0474 30.2307 17.1319 33.2166C17.1537 33.984 17.3372 34.7084 17.7406 35.3615C18.078 35.9074 18.5076 36.3611 19.0241 36.7356C19.6955 37.2224 20.4796 37.4303 21.3062 37.3471C23.2963 37.147 24.9523 35.7042 26.2616 34.2588C27.0779 33.342 27.7936 32.3793 28.4844 31.3418L29.3986 31.8732C28.8439 33.0361 28.3677 34.1962 27.9891 35.4223C27.3572 37.532 26.8958 40.2715 28.4217 42.0388C28.8989 42.5915 29.5432 42.9383 30.2565 43.0908C31.1412 43.2798 32.0473 43.2541 32.9304 42.9921L32.9293 42.9914Z" fill="white"/>
</g>
</g>
<defs>
<filter id="filter0_d_242_3520" x="0" y="0" width="62.7317" height="74" filterUnits="userSpaceOnUse" color-interpolation-filters="sRGB">
<feFlood flood-opacity="0" result="BackgroundImageFix"/>
<feColorMatrix in="SourceAlpha" type="matrix" values="0 0 0 0 0 0 0 0 0 0 0 0 0 0 0 0 0 0 127 0" result="hardAlpha"/>
<feOffset dy="4"/>
<feGaussianBlur stdDeviation="2"/>
<feComposite in2="hardAlpha" operator="out"/>
<feColorMatrix type="matrix" values="0 0 0 0 0 0 0 0 0 0 0 0 0 0 0 0 0 0 0.25 0"/>
<feBlend mode="normal" in2="BackgroundImageFix" result="effect1_dropShadow_242_3520"/>
<feBlend mode="normal" in="SourceGraphic" in2="effect1_dropShadow_242_3520" result="shape"/>
</filter>
<clipPath id="clip0_242_3520">
<rect width="32.1951" height="35.4146" fill="white" transform="translate(15.2683 9.65845)"/>
</clipPath>
</defs>
</svg>
