<svg preserveAspectRatio="none" width="100%" height="100%" overflow="visible" style="display: block;" viewBox="0 0 62.7317 74" fill="none" xmlns="http://www.w3.org/2000/svg">
<g id="Group 10" filter="url(#filter0_d_0_78)">
<path id="Vector" d="M31.3643 0.5C46.2003 0.5 58.2312 12.5551 58.2314 27.4229C58.2314 38.3288 51.7619 47.72 42.458 51.9531C40.1069 53.0229 38.1575 54.7957 36.7939 56.9717L36.5293 57.4121L32.1211 65.0615C31.7837 65.6468 30.9443 65.6449 30.6104 65.0625V65.0615L26.2051 57.415C24.8347 55.0351 22.7811 53.0942 20.2734 51.9531C10.9697 47.7199 4.5 38.3261 4.5 27.4229C4.50022 12.5551 16.5284 0.500153 31.3643 0.5Z" fill="var(--fill-0, white)" stroke="var(--stroke-0, #BBBBBB)"/>
<path id="Vector_2" d="M31.3658 49.9025C43.8125 49.9025 53.9024 39.8125 53.9024 27.3659C53.9024 14.9193 43.8125 4.82932 31.3658 4.82932C18.9192 4.82932 8.82927 14.9193 8.82927 27.3659C8.82927 39.8125 18.9192 49.9025 31.3658 49.9025Z" fill="var(--fill-0, #3F372F)"/>
<g id="Group 9">
<g id="Group">
<path id="Vector_3" d="M29.0662 13.4913V18.2141C29.0662 19.7941 27.7716 21.0887 26.1917 21.0887C24.6117 21.0887 23.3171 19.7941 23.3171 18.2141V13.4913" stroke="var(--stroke-0, white)" stroke-width="1.2" stroke-linecap="round" stroke-linejoin="round"/>
<path id="Vector_4" d="M23.4619 18.2609H28.9428" stroke="var(--stroke-0, white)" stroke-width="1.2" stroke-linecap="round" stroke-linejoin="round"/>
<path id="Vector_5" d="M26.1576 18.1886V13.4914" stroke="var(--stroke-0, white)" stroke-width="1.2" stroke-linecap="round" stroke-linejoin="round"/>
<path id="Vector_6" d="M26.0852 21.242V43.2249" stroke="var(--stroke-0, white)" stroke-width="1.2" stroke-linecap="round" stroke-linejoin="round"/>
</g>
<path id="Vector_7" d="M37.115 43.4633V12.878C37.115 12.878 38.2407 15.885 39.3859 21.0165C39.8056 22.8986 40.0958 24.6163 40.2959 26.0398C40.5979 28.1944 39.0918 30.1328 37.115 30.1328" stroke="var(--stroke-0, white)" stroke-width="1.2" stroke-linecap="round" stroke-linejoin="round"/>
</g>
</g>
<defs>
<filter id="filter0_d_0_78" x="2.08616e-07" y="0" width="62.7317" height="74" filterUnits="userSpaceOnUse" color-interpolation-filters="sRGB">
<feFlood flood-opacity="0" result="BackgroundImageFix"/>
<feColorMatrix in="SourceAlpha" type="matrix" values="0 0 0 0 0 0 0 0 0 0 0 0 0 0 0 0 0 0 127 0" result="hardAlpha"/>
<feOffset dy="4"/>
<feGaussianBlur stdDeviation="2"/>
<feComposite in2="hardAlpha" operator="out"/>
<feColorMatrix type="matrix" values="0 0 0 0 0 0 0 0 0 0 0 0 0 0 0 0 0 0 0.25 0"/>
<feBlend mode="normal" in2="BackgroundImageFix" result="effect1_dropShadow_0_78"/>
<feBlend mode="normal" in="SourceGraphic" in2="effect1_dropShadow_0_78" result="shape"/>
</filter>
</defs>
</svg>
