<svg preserveAspectRatio="none" width="100%" height="100%" overflow="visible" style="display: block;" viewBox="0 0 62.7317 74" fill="none" xmlns="http://www.w3.org/2000/svg">
<g id="Group 13" filter="url(#filter0_d_0_91)">
<path id="Vector" d="M31.3643 0.5C46.2003 0.5 58.2312 12.5551 58.2314 27.4229C58.2314 38.3288 51.7619 47.72 42.458 51.9531C40.1069 53.0229 38.1575 54.7957 36.7939 56.9717L36.5293 57.4121L32.1211 65.0615C31.7837 65.6468 30.9443 65.6449 30.6104 65.0625V65.0615L26.2051 57.415C24.8347 55.0351 22.7811 53.0942 20.2734 51.9531C10.9697 47.7199 4.5 38.3261 4.5 27.4229C4.50022 12.5551 16.5284 0.500153 31.3643 0.5Z" fill="var(--fill-0, white)" stroke="var(--stroke-0, #BBBBBB)"/>
<path id="Vector_2" d="M31.3659 49.9024C43.8125 49.9024 53.9024 39.8125 53.9024 27.3659C53.9024 14.9192 43.8125 4.82927 31.3659 4.82927C18.9192 4.82927 8.82927 14.9192 8.82927 27.3659C8.82927 39.8125 18.9192 49.9024 31.3659 49.9024Z" fill="var(--fill-0, #3F372F)"/>
<g id="Calque_1" clip-path="url(#clip0_0_91)">
<path id="Vector_3" d="M33.0236 13.88C32.0126 13.3642 30.0289 13.4376 28.8373 13.674C28.562 13.7286 28.3105 13.8316 28.0792 13.9655C27.7873 14.1347 27.7174 14.475 27.9036 14.758C28.0659 15.0056 28.2893 15.1896 28.5523 15.4229L26.558 15.8057C25.605 15.9888 24.7412 16.4026 23.9201 16.9009C20.8735 18.7505 19.8732 22.2197 20.5715 25.5478C19.4158 26.4894 18.403 27.4874 17.7957 28.8441C16.9172 30.872 17.5681 32.7771 18.8705 34.4777C19.5679 35.3879 20.3996 36.1393 21.3066 36.8485C21.7521 37.1968 21.7535 37.8496 21.4123 38.2499C21.0731 38.648 20.4465 38.7765 19.9849 38.4438C18.0191 37.0289 16.1931 34.9035 15.5311 32.5788C14.6779 29.4916 15.9849 26.8566 18.2913 24.7584C17.9479 20.8232 19.3928 17.1373 22.912 15.0696C23.7284 14.5874 24.5693 14.2404 25.4712 13.9431C26.324 12.513 27.8066 11.6403 29.4639 11.3672C31.9317 10.9553 34.3696 11.8342 35.6615 13.9498C36.6278 14.2668 37.5233 14.6349 38.3715 15.169C40.1865 16.2678 41.5211 17.9065 42.2373 19.8722C42.8033 21.4375 42.9835 23.0879 42.8295 24.7436C45.1842 26.9116 46.5008 29.6147 45.5345 32.7592C44.8513 34.9944 43.0359 37.0818 41.1299 38.4478C40.6591 38.7854 40.0127 38.6386 39.6882 38.2222C39.3636 37.8058 39.393 37.1561 39.855 36.8073C40.9221 36.0009 41.8604 35.0893 42.6056 33.9847C43.714 32.3419 44.1305 30.5433 43.2662 28.712C42.6663 27.4351 41.6636 26.4657 40.552 25.5465C41.2664 22.1337 40.1842 18.5826 36.9956 16.7782C36.2393 16.3502 35.4518 16.0041 34.5935 15.8187L32.4618 15.4905C32.8011 15.2496 33.0875 14.9899 33.2764 14.6478C33.4373 14.3564 33.3219 14.0326 33.0245 13.8809L33.0236 13.88Z" fill="var(--fill-0, white)"/>
<path id="Vector_4" d="M27.856 36.7912C26.2924 36.3842 24.5253 35.5425 23.6444 34.2167C23.4307 33.8952 23.5442 33.4815 23.8509 33.293C24.1819 33.0897 24.6016 33.1815 24.8209 33.5173C25.0038 33.7976 25.2411 34.0232 25.5045 34.2391C27.2151 35.5268 29.5887 35.9674 31.7296 35.8366C31.9038 34.0107 32.4766 32.0294 33.6609 30.6011C33.9436 30.3043 34.2305 30.037 34.5927 29.8529C35.2253 29.5319 35.9167 29.7173 36.3447 30.2684C37.1015 31.2423 37.2127 32.7758 37.175 34.0264L38.248 33.1394C38.5326 32.9039 38.9849 32.9943 39.1863 33.2424C39.4405 33.5553 39.3674 33.944 39.0746 34.2203C36.1866 36.9448 31.7038 37.7924 27.856 36.7903V36.7912Z" fill="var(--fill-0, white)"/>
<g id="Group">
<path id="Vector_5" d="M29.4411 26.4353C28.5368 28.2397 26.5899 29.2709 24.8062 28.1922C24.1414 27.7902 23.6274 27.213 23.2643 26.5177C22.3687 24.8028 22.3241 22.7602 23.1011 20.992C23.4454 20.2089 23.9598 19.5467 24.6705 19.0703C25.8658 18.2697 27.2965 18.4251 28.375 19.3559C28.8756 19.7885 29.2512 20.3128 29.5289 20.9195C30.3334 22.6764 30.3072 24.7079 29.4415 26.4353H29.4411ZM27.2326 23.1305C27.645 23.4193 27.913 23.7985 28.0909 24.2444C28.4127 25.011 28.4306 25.8102 28.2624 26.6587C29.688 24.8149 29.5087 21.4214 27.7286 19.9492C26.9296 19.2883 25.8571 19.2454 25.0351 19.874C24.4954 20.2868 24.1152 20.8232 23.8587 21.459C23.3116 22.8161 23.3116 24.3233 23.8444 25.6857C24.0182 26.1304 24.2527 26.515 24.574 26.8691C24.1993 25.645 24.4306 24.0179 25.3987 23.2294C25.9348 22.7929 26.6487 22.7208 27.2326 23.13V23.1305Z" fill="var(--fill-0, white)"/>
<path id="Vector_6" d="M36.8978 28.0333C35.874 28.773 34.5881 28.8146 33.5409 28.1497C32.9092 27.7485 32.4279 27.2027 32.0744 26.5311C31.1871 24.8444 31.1264 22.8229 31.8698 21.0695C32.1617 20.3804 32.5787 19.7867 33.1483 19.3125C34.3514 18.3109 35.9094 18.3051 37.1106 19.3098C39.5835 21.3775 39.4768 26.1711 36.8978 28.0337V28.0333ZM36.1834 23.2384C37.1332 24.0895 37.3221 25.4677 37.0454 26.6914C38.1892 25.1941 38.2894 22.9505 37.5304 21.2754C37.2619 20.7113 36.9125 20.2277 36.4128 19.857C35.6018 19.2557 34.5527 19.2852 33.768 19.9197C32.3185 21.0919 31.9838 23.3534 32.4408 25.1023C32.6385 25.752 32.8853 26.356 33.3841 26.8853C32.9929 25.6056 33.2324 23.8939 34.3519 23.1246C34.9247 22.7311 35.6299 22.7933 36.1838 23.2388L36.1834 23.2384Z" fill="var(--fill-0, white)"/>
</g>
</g>
</g>
<defs>
<filter id="filter0_d_0_91" x="1.19209e-07" y="0" width="62.7317" height="74" filterUnits="userSpaceOnUse" color-interpolation-filters="sRGB">
<feFlood flood-opacity="0" result="BackgroundImageFix"/>
<feColorMatrix in="SourceAlpha" type="matrix" values="0 0 0 0 0 0 0 0 0 0 0 0 0 0 0 0 0 0 127 0" result="hardAlpha"/>
<feOffset dy="4"/>
<feGaussianBlur stdDeviation="2"/>
<feComposite in2="hardAlpha" operator="out"/>
<feColorMatrix type="matrix" values="0 0 0 0 0 0 0 0 0 0 0 0 0 0 0 0 0 0 0.25 0"/>
<feBlend mode="normal" in2="BackgroundImageFix" result="effect1_dropShadow_0_91"/>
<feBlend mode="normal" in="SourceGraphic" in2="effect1_dropShadow_0_91" result="shape"/>
</filter>
<clipPath id="clip0_0_91">
<rect width="30.5854" height="27.3659" fill="white" transform="translate(15.2683 11.2683)"/>
</clipPath>
</defs>
</svg>
