<svg preserveAspectRatio="none" width="100%" height="100%" overflow="visible" style="display: block;" viewBox="0 0 232 253" fill="none" xmlns="http://www.w3.org/2000/svg">
<g id="Calque_1" clip-path="url(#clip0_0_787)">
<path id="Vector" d="M118.9 0L120.12 0.212516C125.42 0.586833 130.464 1.83536 135.244 4.21651C144.732 8.94498 151.987 17.1776 155.496 27.1755C157.221 32.0947 157.999 37.0526 158.019 42.2617L158.064 55.3893L163.42 51.2453C171.264 45.1765 180.728 42.1651 190.668 42.0153C199.803 41.8777 208.331 44.8674 215.214 50.8516C224.168 58.6374 230.867 69.8525 231.766 81.8524L231.998 83.3183V88.1482L231.758 89.6164C231.229 95.7697 228.955 101.433 225.434 106.461C219.051 115.577 208.918 121.849 198.822 126.565L207.957 131.006C220.765 138.029 230.668 148.638 231.778 163.714L231.998 164.941V170.254L231.775 171.478C230.888 184.051 224.16 195.365 214.482 203.209C205.999 210.084 195.117 212.76 184.401 210.591C174.889 208.666 166.066 203.573 158.038 197.927L158.021 208.654C158.004 220.449 154.664 232.002 146.764 240.831C139.442 249.013 129.838 252.408 119.059 252.998L113.182 252.99C103.322 252.56 94.0615 248.897 86.8961 242.077C81.5166 236.957 77.662 230.727 75.6997 223.542C73.3482 215.206 73.8485 206.696 74.4237 197.925C69.6942 201.738 64.8198 204.926 59.3243 207.331C45.6581 213.31 30.4427 212.943 18.3691 203.793C8.16108 196.053 1.10925 184.418 0.212667 171.476L0 170.254V164.941L0.22475 163.712C1.86083 145.387 17.4532 133.699 33.1905 126.553C24.4615 122.634 16.5203 118.49 10.005 111.484C4.3645 105.422 0.843417 97.8925 0.219917 89.6189L0 88.3872L0.0990833 83.2772C0.193333 78.5463 1.56842 74.1559 3.28425 69.7124C7.018 60.0405 13.7653 52.2934 22.707 47.0795C40.8489 36.4972 58.4543 44.1888 74.4502 55.3869L74.0515 49.7432C73.7543 45.5339 73.9742 41.414 74.4696 37.2241C75.9558 24.6325 81.78 12.9441 92.5946 6.08085C98.7667 2.16138 105.753 0.50231 112.875 0.0917682L118.9 0ZM127.266 238.129C137.83 235.023 142.803 226.189 144.152 215.786C145.723 203.655 143.113 191.651 139.229 180.119C136.662 172.737 133.663 165.743 130.186 158.706L136.776 154.905C141.718 162.261 146.834 169.105 152.673 175.615C162.424 186.335 175.191 197.289 190.194 197.905C196.054 198.147 201.499 196.28 206.038 192.595C209.74 189.588 212.698 185.966 214.984 181.759C217.541 177.047 218.716 171.937 218.554 166.588C217.904 145.102 192.19 136.988 174.128 133.441C166.346 131.977 158.77 131.021 150.723 130.352L150.696 123.025C171.772 121.127 213.164 115.802 218.034 91.133C219.634 83.0309 217.647 74.8442 212.836 68.1934C206.871 59.9488 198.749 54.4161 188.249 55.5801C172.11 57.3672 158.601 70.7339 148.451 82.6638C144.302 87.6966 140.536 92.7414 136.769 98.1944L130.198 94.6492C133.637 87.5661 136.65 80.57 139.185 73.161C143.845 59.5817 147.296 41.6966 141.88 28.2477C139.234 21.6766 134.04 16.8926 127.163 14.922C120.879 13.1204 114.241 12.9031 107.815 14.3086C102.689 15.4291 98.0683 17.9334 94.6705 21.9084C83.7109 34.7222 87.174 54.4861 91.727 69.7003C94.4143 78.3362 97.8315 86.4818 101.819 94.654L95.2432 98.1992C91.7584 93.164 88.3195 88.5273 84.5398 83.8544C76.8911 74.6607 67.9784 65.4331 57.3499 59.8546C46.6924 54.2591 34.3771 53.1289 25.0125 61.4943C21.3706 64.7473 18.4513 68.616 16.3246 73.0378C14.1979 77.4596 13.311 81.9538 13.4463 86.7499C14.2632 115.408 58.5824 121.078 81.0574 123.01L81.0308 130.357C71.6614 131.163 62.7512 132.351 53.7177 134.334C35.8609 138.321 12.8204 146.967 13.4294 168.298C13.5865 173.78 14.9084 178.955 17.8157 183.621C20.2468 187.521 23.3426 190.762 27.0642 193.438C31.9024 196.915 37.5526 198.4 43.5097 197.806C57.8502 196.377 69.7837 186.07 79.2183 175.743C85.1005 169.194 90.2577 162.316 95.236 154.905L101.824 158.701C97.8267 167.008 94.395 175.297 91.6666 184.056C87.1136 199.127 83.7882 218.698 94.7841 231.323C98.223 235.272 102.865 237.75 108.006 238.839C114.381 240.189 120.911 240.005 127.274 238.134L127.266 238.129Z" fill="var(--fill-0, white)"/>
</g>
<defs>
<clipPath id="clip0_0_787">
<rect width="232" height="253" fill="white"/>
</clipPath>
</defs>
</svg>
