<svg preserveAspectRatio="none" width="100%" height="100%" overflow="visible" style="display: block;" viewBox="0 0 18 20.5715" fill="none" xmlns="http://www.w3.org/2000/svg">
<g id="Group 19">
<path id="Vector" d="M17.9892 6.8853L18 7.3937L17.9681 7.55281C17.8234 8.98142 16.679 9.89993 15.4247 10.416L16.0178 10.7376C16.475 10.9852 16.8767 11.3047 17.2253 11.6987C17.6319 12.1586 17.9067 12.7048 17.9714 13.3272L18 13.4561V13.9028L17.9689 14.0973C17.8528 15.4438 16.7498 16.8919 15.4334 17.137C14.2881 17.3506 13.1436 16.9613 12.3072 16.1427C12.2781 16.1457 12.264 16.1461 12.2628 16.1572L12.2545 16.2308C12.2678 16.6954 12.2719 17.1349 12.2433 17.5969C12.1542 18.4375 11.8218 19.2288 11.1797 19.7581L10.9177 19.9742C10.4904 20.3265 9.9428 20.5017 9.39192 20.543L9.23316 20.5715H8.79793C7.97637 20.523 7.23482 20.2422 6.64746 19.5883C6.18238 19.0229 5.91544 18.3563 5.82674 17.6186C5.76705 17.1242 5.78902 16.6388 5.78363 16.1257C5.07357 16.6328 4.31585 17.077 3.46819 17.1778C1.72725 17.385 0.176995 15.7641 0.0281865 14.099L0 13.9347V13.4068C0.12601 11.8986 1.21119 11.0231 2.57326 10.4245C1.34342 9.83909 0.195648 8.94483 0.0294301 7.5243L0 7.3937L0.0116062 6.85425C0.0945078 5.87149 0.541762 4.99808 1.28995 4.34674C2.26404 3.49842 3.49264 3.42993 4.64 3.97108C5.04995 4.16423 5.39772 4.42119 5.78363 4.7007L5.79233 3.53501C5.80352 2.08641 6.7656 0.73523 8.19192 0.378717L8.30052 1.45124C7.38736 1.6865 6.88829 2.49015 6.79917 3.4278C6.66238 4.86577 7.28622 6.52539 7.89803 7.85487L7.39565 8.16075C6.98446 7.54345 6.5658 6.94742 6.06715 6.40116C5.37243 5.64048 4.61927 4.96532 3.61119 4.74665C2.90984 4.59477 2.25699 4.83641 1.77699 5.35672C1.35005 5.81917 1.07192 6.36244 1.04953 7.01123C1.01057 8.1531 1.69451 8.864 2.66529 9.31496C3.77368 9.82973 5.07357 10.008 6.28145 10.1229L6.28684 10.7014C4.75357 10.8469 2.47503 11.1715 1.48518 12.4006C0.667772 13.4161 1.05326 14.972 2.11979 15.7756C3.14321 16.5469 4.51316 15.8947 5.40891 15.08C6.17865 14.3797 6.80788 13.5774 7.3857 12.6946L7.9001 12.9622C7.33927 14.1909 6.81617 15.5603 6.77886 16.9323C6.74653 18.1193 7.27171 19.2182 8.44435 19.4348C8.84187 19.5084 9.24394 19.5032 9.64187 19.4267C10.1994 19.3195 10.6595 18.9991 10.9277 18.4797C11.0926 18.1593 11.1685 17.7947 11.2025 17.4237C11.3364 15.9636 10.7154 14.3113 10.0974 12.9656L10.6044 12.6848C11.3691 13.8297 12.3138 15.066 13.5013 15.7394C13.9055 15.9687 14.3283 16.0981 14.7863 16.1172C15.3103 16.1393 15.7662 15.9011 16.143 15.5399C16.6056 15.0966 16.9003 14.5248 16.9438 13.8756C17.1125 11.3655 13.6075 10.8895 11.7007 10.6968L11.7119 10.1216C12.6118 10.0365 13.4723 9.91141 14.3395 9.66807L14.9239 9.47066C15.4031 9.30857 15.8363 9.0631 16.2184 8.72871C16.9612 8.07907 17.115 7.15035 16.7743 6.21482L17.7053 5.72557C17.8802 6.11186 17.9793 6.49603 17.988 6.88573L17.9892 6.8853Z" fill="var(--fill-0, #BA0B2F)"/>
<path id="Vector_2" d="M11.6016 0.00260723C12.8389 0.173632 13.3741 0.96664 13.3849 2.24677C13.9229 1.84048 14.3697 1.63287 15.0135 1.7154C15.8321 1.906 16.4423 2.59988 16.5156 3.46691C16.5587 3.97531 16.4435 4.45903 16.1724 4.88148C15.9627 5.20864 15.6646 5.42646 15.3285 5.61365C14.0302 6.33647 12.475 6.8589 11.0624 7.33921C10.9546 7.3758 10.8373 7.36644 10.7366 7.31326C10.6304 7.25753 10.5521 7.15798 10.521 7.03971C10.2271 5.91784 9.95148 4.81426 9.71356 3.67793L9.50216 2.48076C9.28869 1.27295 10.0841 0.13279 11.2564 5.46277e-05L11.6016 0.00260723Z" fill="var(--fill-0, #BA0B2F)"/>
</g>
</svg>
