<svg preserveAspectRatio="none" width="100%" height="100%" overflow="visible" style="display: block;" viewBox="0 0 16 18" fill="none" xmlns="http://www.w3.org/2000/svg">
<g id="Calque_1" clip-path="url(#clip0_0_381)">
<path id="Vector" d="M8.2 0L8.28417 0.0151197C8.64967 0.041751 8.9975 0.130579 9.32717 0.299989C9.9815 0.636402 10.4818 1.22212 10.7238 1.93343C10.8428 2.28342 10.8965 2.63615 10.8978 3.00676L10.901 3.94074L11.2703 3.64591C11.8113 3.21414 12.464 2.99989 13.1495 2.98923C13.7795 2.97944 14.3677 3.19215 14.8423 3.6179C15.4598 4.17183 15.9218 4.96974 15.9838 5.82349L15.9998 5.92778V6.27141L15.9833 6.37587C15.9468 6.81366 15.79 7.21656 15.5472 7.57428C15.107 8.22288 14.4082 8.66909 13.7118 9.00464L14.3418 9.32061C15.2252 9.82024 15.9082 10.575 15.9847 11.6477L15.9998 11.7349V12.1129L15.9845 12.2001C15.9233 13.0945 15.4593 13.8995 14.7918 14.4575C14.2068 14.9467 13.4563 15.1371 12.7173 14.9828C12.0613 14.8458 11.4528 14.4835 10.8992 14.0818L10.898 14.845C10.8968 15.6841 10.6665 16.5061 10.1217 17.1342C9.61667 17.7163 8.95433 17.9579 8.211 17.9998L7.80567 17.9993C7.12567 17.9687 6.487 17.7081 5.99283 17.2229C5.62183 16.8586 5.356 16.4154 5.22067 15.9042C5.0585 15.3111 5.093 14.7056 5.13267 14.0816C4.8065 14.3529 4.47033 14.5797 4.09133 14.7508C3.14883 15.1762 2.0995 15.1501 1.26683 14.4991C0.562833 13.9484 0.0765 13.1206 0.0146667 12.1999L0 12.1129V11.7349L0.0155 11.6475C0.128333 10.3438 1.20367 9.51218 2.289 9.00378C1.687 8.72493 1.13933 8.43009 0.69 7.93166C0.301 7.5004 0.0581667 6.96468 0.0151667 6.37605L0 6.28842L0.00683333 5.92486C0.0133333 5.58828 0.108167 5.27592 0.2265 4.95978C0.484 4.27166 0.949333 3.72048 1.566 3.34953C2.81717 2.59664 4.03133 3.14387 5.1345 3.94057L5.107 3.53904C5.0865 3.23957 5.10167 2.94645 5.13583 2.64835C5.23833 1.75251 5.64 0.920927 6.38583 0.43263C6.8115 0.153774 7.29333 0.0357375 7.7845 0.00652896L8.2 0ZM8.777 16.942C9.5055 16.721 9.8485 16.0925 9.9415 15.3523C10.0498 14.4893 9.86983 13.6352 9.602 12.8148C9.425 12.2896 9.21817 11.792 8.97833 11.2913L9.43283 11.0209C9.77367 11.5442 10.1265 12.0312 10.5292 12.4944C11.2017 13.2571 12.0822 14.0364 13.1168 14.0802C13.521 14.0974 13.8965 13.9646 14.2095 13.7024C14.4648 13.4885 14.6688 13.2308 14.8265 12.9315C15.0028 12.5963 15.0838 12.2327 15.0727 11.8521C15.0278 10.3235 13.2545 9.74619 12.0088 9.4938C11.4722 9.38968 10.9497 9.32164 10.3947 9.27405L10.3928 8.75276C11.8463 8.61771 14.701 8.23886 15.0368 6.48377C15.1472 5.90734 15.0102 5.32488 14.6783 4.85171C14.267 4.26513 13.7068 3.8715 12.9827 3.95432C11.8697 4.08146 10.938 5.03245 10.238 5.88122C9.95183 6.23928 9.69217 6.5982 9.43233 6.98616L8.97917 6.73394C9.21633 6.23 9.42417 5.73226 9.599 5.20513C9.92033 4.23901 10.1583 2.96655 9.78483 2.00972C9.60233 1.54221 9.24417 1.20184 8.76983 1.06164C8.3365 0.93347 7.87867 0.918006 7.4355 1.018C7.082 1.09772 6.76333 1.2759 6.529 1.5587C5.77317 2.47035 6.012 3.87648 6.326 4.95892C6.51133 5.57333 6.747 6.15286 7.022 6.73428L6.5685 6.9865C6.32817 6.62827 6.091 6.29839 5.83033 5.96592C5.30283 5.31183 4.68817 4.65532 3.95517 4.25843C3.22017 3.86033 2.37083 3.77992 1.725 4.37509C1.47383 4.60653 1.2725 4.88177 1.12583 5.19637C0.979167 5.51096 0.918 5.83071 0.927333 6.17193C0.983667 8.21086 4.04017 8.61428 5.59017 8.75173L5.58833 9.27439C4.94217 9.33177 4.32767 9.41631 3.70467 9.55737C2.47317 9.84103 0.884167 10.4561 0.926167 11.9738C0.937 12.3638 1.02817 12.732 1.22867 13.0639C1.39633 13.3414 1.60983 13.572 1.8665 13.7624C2.20017 14.0098 2.58983 14.1154 3.00067 14.0732C3.98967 13.9715 4.81267 13.2382 5.46333 12.5035C5.869 12.0375 6.22467 11.5482 6.568 11.0209L7.02233 11.291C6.74667 11.882 6.51 12.4717 6.32183 13.0949C6.00783 14.1672 5.7785 15.5595 6.53683 16.4578C6.774 16.7387 7.09417 16.915 7.44867 16.9925C7.88833 17.0885 8.33867 17.0755 8.7775 16.9423L8.777 16.942Z" fill="var(--fill-0, #6E6363)"/>
</g>
<defs>
<clipPath id="clip0_0_381">
<rect width="16" height="18" fill="white"/>
</clipPath>
</defs>
</svg>
