<svg width="31" height="29" viewBox="0 0 31 29" fill="none" xmlns="http://www.w3.org/2000/svg">
<path d="M15.5 25.9791C15.5 25.9791 2.38464 17.5208 2.38464 9.06247C2.38889 7.50672 2.88683 5.99362 3.80489 4.74674C4.72295 3.49985 6.01244 2.58532 7.48282 2.13828C8.9532 1.69124 10.5265 1.73539 11.9702 2.26422C13.4139 2.79305 14.6515 3.7785 15.5 5.07497C16.3486 3.7785 17.5862 2.79305 19.0299 2.26422C20.4736 1.73539 22.0469 1.69124 23.5172 2.13828C24.9876 2.58532 26.2771 3.49985 27.1952 4.74674C28.1132 5.99362 28.6112 7.50672 28.6154 9.06247C28.6154 17.5208 15.5 25.9791 15.5 25.9791Z" stroke="#6E6363" stroke-width="1.5" stroke-linejoin="round"/>
</svg>
