<svg width="32" height="27" viewBox="0 0 32 27" fill="none" xmlns="http://www.w3.org/2000/svg">
<path d="M1.16815 21.6227V25.1C1.16815 25.3761 1.39201 25.6 1.66815 25.6H1.87087C2.11969 25.6 2.33065 25.417 2.36584 25.1707L2.8727 21.6227" stroke="#6E6363" stroke-width="1.2"/>
<path d="M29.5773 21.6227V25.1C29.5773 25.3761 29.3534 25.6 29.0773 25.6H28.8746C28.6257 25.6 28.4148 25.417 28.3796 25.1707L27.8727 21.6227" stroke="#6E6363" stroke-width="1.2"/>
<path d="M1.16815 15.9409H30.7136" stroke="#6E6363" stroke-width="1.2"/>
<path d="M1.73633 11.9636V1.09998C1.73633 0.823833 1.96019 0.599976 2.23633 0.599976H28.5091C28.7852 0.599976 29.0091 0.823833 29.0091 1.09998V11.9636" stroke="#6E6363" stroke-width="1.2"/>
<path d="M3.44088 11.9637H1.09998C0.823833 11.9637 0.599976 12.1875 0.599976 12.4637V21.1228C0.599976 21.3989 0.823833 21.6228 1.09998 21.6228H30.2136C30.4898 21.6228 30.7136 21.3989 30.7136 21.1228V12.4637C30.7136 12.1875 30.4898 11.9637 30.2136 11.9637H13.6682M3.44088 11.9637V7.91821C3.44088 7.64207 3.66474 7.41821 3.94088 7.41821H13.1682C13.4443 7.41821 13.6682 7.64207 13.6682 7.91821V11.9637M3.44088 11.9637H13.6682M26.8045 7.41821H17.5772C17.3011 7.41821 17.0772 7.64207 17.0772 7.91821V11.4637C17.0772 11.7398 17.3011 11.9637 17.5772 11.9637H26.8045C27.0807 11.9637 27.3045 11.7398 27.3045 11.4637V7.91821C27.3045 7.64207 27.0807 7.41821 26.8045 7.41821Z" stroke="#6E6363" stroke-width="1.2"/>
</svg>
