<svg width="36" height="27" viewBox="0 0 36 27" fill="none" xmlns="http://www.w3.org/2000/svg">
<path d="M17.5973 25.6C24.5009 25.6 30.0973 20.0035 30.0973 13.1C30.0973 6.19642 24.5009 0.599976 17.5973 0.599976C10.6937 0.599976 5.09729 6.19642 5.09729 13.1C5.09729 20.0035 10.6937 25.6 17.5973 25.6Z" stroke="#BA0B2F" stroke-width="1.2" stroke-linecap="round" stroke-linejoin="round"/>
<path d="M17.5973 20.8726C13.3116 20.8726 9.82745 17.3858 9.82745 13.1027C9.82745 8.81966 13.3142 5.33289 17.5973 5.33289C21.8804 5.33289 25.3671 8.81966 25.3671 13.1027C25.3671 17.3858 21.8804 20.8726 17.5973 20.8726Z" stroke="#BA0B2F" stroke-width="1.2" stroke-linecap="round" stroke-linejoin="round"/>
<path d="M17.5973 6.89893C19.4227 6.89893 21.0523 7.74813 22.1158 9.07088" stroke="#BA0B2F" stroke-width="1.2" stroke-linecap="round" stroke-linejoin="round"/>
<path d="M4.1714 3.98096V6.91482C4.1714 7.8963 3.36717 8.70053 2.38569 8.70053C1.40421 8.70053 0.599976 7.8963 0.599976 6.91482V3.98096" stroke="#BA0B2F" stroke-width="1.2" stroke-linecap="round" stroke-linejoin="round"/>
<path d="M0.689941 6.94385H4.0947" stroke="#BA0B2F" stroke-width="1.2" stroke-linecap="round" stroke-linejoin="round"/>
<path d="M2.3645 6.89895V3.98096" stroke="#BA0B2F" stroke-width="1.2" stroke-linecap="round" stroke-linejoin="round"/>
<path d="M2.31958 8.79578V22.4519" stroke="#BA0B2F" stroke-width="1.2" stroke-linecap="round" stroke-linejoin="round"/>
<path d="M32.7362 22.6V3.59998C32.7362 3.59998 33.4355 5.46799 34.1469 8.65571C34.4076 9.8249 34.5879 10.892 34.7122 11.7762C34.8998 13.1148 33.9642 14.3189 32.7362 14.3189" stroke="#BA0B2F" stroke-width="1.2" stroke-linecap="round" stroke-linejoin="round"/>
</svg>
